<svg width="596" height="80" viewBox="0 0 596 80" fill="none" xmlns="http://www.w3.org/2000/svg">
<g clip-path="url(#clip0_252_2586)">
<path d="M27.7488 9.17505H6.03223V68H27.7488V9.17505Z" fill="#FFCD19"/>
<path d="M61.4629 43.9874H68.5713C68.4765 46.0454 67.9214 47.8597 66.9059 49.4303C65.8904 51.0009 64.4823 52.2263 62.6815 53.1064C60.8943 53.9729 58.7821 54.4062 56.3449 54.4062C54.3681 54.4062 52.6012 54.0744 51.0442 53.411C49.5006 52.7476 48.1873 51.793 47.1041 50.5474C46.0345 49.3017 45.2153 47.792 44.6467 46.0183C44.0915 44.2446 43.814 42.2475 43.814 40.027V38.4226C43.814 36.2021 44.1051 34.205 44.6873 32.4313C45.283 30.644 46.1225 29.1276 47.2057 27.8819C48.3024 26.6227 49.6157 25.6614 51.1457 24.998C52.6757 24.3345 54.3749 24.0028 56.2434 24.0028C58.8159 24.0028 60.9891 24.4632 62.7628 25.3839C64.5365 26.3046 65.9107 27.5705 66.8856 29.1817C67.8604 30.7794 68.4359 32.6005 68.6119 34.645H61.5036C61.4765 33.5347 61.2869 32.6073 60.9349 31.8626C60.5829 31.1044 60.0277 30.5357 59.2695 30.1566C58.5113 29.7775 57.5026 29.5879 56.2434 29.5879C55.3633 29.5879 54.5983 29.7504 53.9484 30.0754C53.2985 30.4003 52.7569 30.9148 52.3237 31.6189C51.8904 32.3229 51.5654 33.2369 51.3488 34.3607C51.1457 35.4709 51.0442 36.8113 51.0442 38.382V40.027C51.0442 41.5976 51.1389 42.9381 51.3285 44.0483C51.518 45.1586 51.8227 46.0657 52.2424 46.7698C52.6621 47.4739 53.2037 47.9951 53.8672 48.3336C54.5442 48.6586 55.3701 48.821 56.3449 48.821C57.4281 48.821 58.342 48.6518 59.0867 48.3133C59.8314 47.9613 60.4068 47.4332 60.813 46.7292C61.2192 46.0116 61.4359 45.0976 61.4629 43.9874Z" fill="black"/>
<path d="M91.4804 48.5164V54H76.5326V48.5164H91.4804ZM79.0713 24.4293V54H71.9427V24.4293H79.0713Z" fill="black"/>
<path d="M102.062 24.4293V54H94.9534V24.4293H102.062Z" fill="black"/>
<path d="M131.775 24.4293V54H124.666L114.207 35.5995V54H107.078V24.4293H114.207L124.666 42.8297V24.4293H131.775Z" fill="black"/>
<path d="M143.859 24.4293V54H136.75V24.4293H143.859Z" fill="black"/>
<path d="M165.691 43.9874H172.8C172.705 46.0454 172.15 47.8597 171.134 49.4303C170.119 51.0009 168.711 52.2263 166.91 53.1064C165.123 53.9729 163.011 54.4062 160.573 54.4062C158.597 54.4062 156.83 54.0744 155.273 53.411C153.729 52.7476 152.416 51.793 151.333 50.5474C150.263 49.3017 149.444 47.792 148.875 46.0183C148.32 44.2446 148.042 42.2475 148.042 40.027V38.4226C148.042 36.2021 148.334 34.205 148.916 32.4313C149.512 30.644 150.351 29.1276 151.434 27.8819C152.531 26.6227 153.844 25.6614 155.374 24.998C156.904 24.3345 158.603 24.0028 160.472 24.0028C163.044 24.0028 165.218 24.4632 166.991 25.3839C168.765 26.3046 170.139 27.5705 171.114 29.1817C172.089 30.7794 172.664 32.6005 172.84 34.645H165.732C165.705 33.5347 165.515 32.6073 165.163 31.8626C164.811 31.1044 164.256 30.5357 163.498 30.1566C162.74 29.7775 161.731 29.5879 160.472 29.5879C159.592 29.5879 158.827 29.7504 158.177 30.0754C157.527 30.4003 156.985 30.9148 156.552 31.6189C156.119 32.3229 155.794 33.2369 155.577 34.3607C155.374 35.4709 155.273 36.8113 155.273 38.382V40.027C155.273 41.5976 155.367 42.9381 155.557 44.0483C155.747 45.1586 156.051 46.0657 156.471 46.7698C156.891 47.4739 157.432 47.9951 158.096 48.3336C158.773 48.6586 159.599 48.821 160.573 48.821C161.657 48.821 162.571 48.6518 163.315 48.3133C164.06 47.9613 164.635 47.4332 165.042 46.7292C165.448 46.0116 165.664 45.0976 165.691 43.9874Z" fill="black"/>
<path d="M188.702 30.644L181.492 54H173.836L184.701 24.4293H189.555L188.702 30.644ZM194.673 54L187.443 30.644L186.509 24.4293H191.424L202.35 54H194.673ZM194.389 42.9719V48.4758H179.218V42.9719H194.389Z" fill="black"/>
<path d="M224.488 54H217.928L217.968 48.5164H224.488C225.841 48.5164 226.986 48.1915 227.92 47.5415C228.868 46.8916 229.585 45.9236 230.073 44.6373C230.574 43.3375 230.824 41.7398 230.824 39.8442V38.5647C230.824 37.1431 230.682 35.8974 230.398 34.8278C230.127 33.7446 229.721 32.8442 229.179 32.1266C228.637 31.3955 227.96 30.8471 227.148 30.4815C226.349 30.116 225.429 29.9332 224.386 29.9332H217.806V24.4293H224.386C226.39 24.4293 228.224 24.7746 229.89 25.4651C231.569 26.1421 233.018 27.1169 234.236 28.3897C235.468 29.6489 236.416 31.145 237.079 32.8781C237.756 34.5976 238.095 36.5067 238.095 38.6054V39.8442C238.095 41.9293 237.756 43.8384 237.079 45.5715C236.416 47.3046 235.475 48.8007 234.256 50.0599C233.038 51.3191 231.596 52.294 229.93 52.9845C228.279 53.6615 226.464 54 224.488 54ZM222.01 24.4293V54H214.881V24.4293H222.01Z" fill="black"/>
<path d="M262.162 48.5164V54H246.401V48.5164H262.162ZM248.94 24.4293V54H241.812V24.4293H248.94ZM260.131 36.1682V41.469H246.401V36.1682H260.131ZM262.223 24.4293V29.9332H246.401V24.4293H262.223Z" fill="black"/>
<path d="M289.783 24.4293V54H282.674L272.215 35.5995V54H265.086V24.4293H272.215L282.674 42.8297V24.4293H289.783Z" fill="black"/>
<path d="M308 24.4293V54H300.872V24.4293H308ZM316.896 24.4293V29.9332H292.179V24.4293H316.896Z" fill="black"/>
<path d="M329.975 30.644L322.765 54H315.109L325.974 24.4293H330.828L329.975 30.644ZM335.946 54L328.716 30.644L327.782 24.4293H332.697L343.623 54H335.946ZM335.662 42.9719V48.4758H320.491V42.9719H335.662Z" fill="black"/>
<path d="M365.334 48.5164V54H350.386V48.5164H365.334ZM352.925 24.4293V54H345.796V24.4293H352.925Z" fill="black"/>
<path d="M382.232 24.4293H388.04L394.641 45.0029L401.241 24.4293H407.05L396.997 54H392.285L382.232 24.4293ZM378.698 24.4293H384.709L385.826 47.0947V54H378.698V24.4293ZM404.572 24.4293H410.604V54H403.455V47.0947L404.572 24.4293Z" fill="black"/>
<path d="M431.218 24.4293H438.347V43.7437C438.347 46.0454 437.866 47.9951 436.905 49.5928C435.944 51.177 434.596 52.3752 432.863 53.1876C431.13 54 429.092 54.4062 426.75 54.4062C424.435 54.4062 422.397 54 420.637 53.1876C418.89 52.3752 417.523 51.177 416.534 49.5928C415.56 47.9951 415.072 46.0454 415.072 43.7437V24.4293H422.221V43.7437C422.221 44.9622 422.397 45.9574 422.749 46.7292C423.101 47.4874 423.616 48.0425 424.293 48.3945C424.97 48.7466 425.789 48.9226 426.75 48.9226C427.725 48.9226 428.544 48.7466 429.208 48.3945C429.871 48.0425 430.372 47.4874 430.71 46.7292C431.049 45.9574 431.218 44.9622 431.218 43.7437V24.4293Z" fill="black"/>
<path d="M463.185 48.5164V54H447.425V48.5164H463.185ZM449.964 24.4293V54H442.835V24.4293H449.964ZM461.154 36.1682V41.469H447.425V36.1682H461.154ZM463.246 24.4293V29.9332H447.425V24.4293H463.246Z" fill="black"/>
<path d="M485.648 48.5164V54H470.7V48.5164H485.648ZM473.239 24.4293V54H466.11V24.4293H473.239Z" fill="black"/>
<path d="M496.229 24.4293V54H489.121V24.4293H496.229Z" fill="black"/>
<path d="M514.954 24.4293V54H507.826V24.4293H514.954ZM523.85 24.4293V29.9332H499.133V24.4293H523.85Z" fill="black"/>
<path d="M536.929 30.644L529.719 54H522.063L532.928 24.4293H537.782L536.929 30.644ZM542.9 54L535.67 30.644L534.736 24.4293H539.651L550.577 54H542.9ZM542.616 42.9719V48.4758H527.445V42.9719H542.616Z" fill="black"/>
<path d="M567.983 46.1402C567.983 45.6798 567.915 45.2669 567.779 44.9013C567.644 44.5222 567.394 44.1702 567.028 43.8452C566.662 43.5203 566.134 43.1953 565.444 42.8704C564.767 42.5319 563.873 42.1798 562.763 41.8143C561.463 41.381 560.211 40.8936 559.006 40.352C557.801 39.7968 556.724 39.1537 555.776 38.4226C554.829 37.6779 554.077 36.8113 553.522 35.823C552.967 34.821 552.689 33.6566 552.689 32.3297C552.689 31.057 552.974 29.9129 553.542 28.8974C554.111 27.8684 554.903 26.9951 555.919 26.2775C556.948 25.5463 558.153 24.9912 559.534 24.6121C560.915 24.2194 562.425 24.0231 564.063 24.0231C566.229 24.0231 568.138 24.4022 569.79 25.1605C571.455 25.9051 572.755 26.968 573.69 28.349C574.637 29.7166 575.111 31.3345 575.111 33.203H568.023C568.023 32.4583 567.867 31.8017 567.556 31.233C567.258 30.6643 566.805 30.2175 566.195 29.8926C565.586 29.5676 564.821 29.4051 563.9 29.4051C563.007 29.4051 562.255 29.5405 561.646 29.8113C561.037 30.0821 560.576 30.4477 560.265 30.908C559.953 31.3549 559.798 31.8491 559.798 32.3906C559.798 32.8375 559.92 33.2436 560.163 33.6092C560.421 33.9612 560.779 34.293 561.24 34.6044C561.714 34.9158 562.282 35.2137 562.946 35.498C563.623 35.7823 564.381 36.0599 565.22 36.3307C566.791 36.8317 568.186 37.3936 569.404 38.0164C570.636 38.6257 571.672 39.323 572.512 40.1083C573.365 40.88 574.008 41.7601 574.441 42.7485C574.888 43.7369 575.111 44.8539 575.111 46.0996C575.111 47.4265 574.854 48.6044 574.339 49.6334C573.825 50.6624 573.087 51.5358 572.126 52.2534C571.164 52.9574 570.013 53.4922 568.673 53.8578C567.333 54.2234 565.836 54.4062 564.185 54.4062C562.668 54.4062 561.172 54.2166 559.696 53.8375C558.234 53.4449 556.907 52.8491 555.716 52.0503C554.524 51.2379 553.57 50.2021 552.852 48.9429C552.148 47.6702 551.796 46.1605 551.796 44.4139H558.945C558.945 45.2804 559.06 46.0116 559.29 46.6073C559.52 47.2031 559.859 47.6837 560.306 48.0493C560.752 48.4013 561.301 48.6586 561.951 48.821C562.601 48.97 563.345 49.0445 564.185 49.0445C565.092 49.0445 565.823 48.9158 566.378 48.6586C566.933 48.3878 567.339 48.0357 567.597 47.6025C567.854 47.1557 567.983 46.6682 567.983 46.1402Z" fill="black"/>
</g>
<defs>
<clipPath id="clip0_252_2586">
<rect width="596" height="80" fill="white"/>
</clipPath>
</defs>
</svg>
