<svg width="201" height="49" viewBox="0 0 201 49" fill="none" xmlns="http://www.w3.org/2000/svg">
<path fill-rule="evenodd" clip-rule="evenodd" d="M17.1269 6H18.0129C22.6789 6.69 23.9439 9.338 28.0099 9.338C32.0759 9.338 33.3409 6.69 38.0079 6H38.5099C39.7574 6 40.9928 6.24572 42.1453 6.72314C43.2979 7.20056 44.3452 7.90033 45.2274 8.78249C46.1095 9.66464 46.8093 10.7119 47.2867 11.8645C47.7641 13.0171 48.0099 14.2524 48.0099 15.5V16.126C48.0099 19.029 44.9199 22.343 44.0099 25.483C43.0449 28.817 42.3839 31.543 42.1899 34.394C41.7349 41.075 39.4569 44 37.0099 44C33.3559 44 30.1119 29.025 28.0729 29.025C26.0329 29.025 21.9879 44 19.0099 44C17.1929 44 14.8399 42.925 13.9559 34.394C13.6039 31 13.0099 28.941 12.0099 25.483C11.1299 22.443 8.16185 18.811 8.00985 15.551C7.95252 14.3181 8.14584 13.0863 8.57815 11.9302C9.01045 10.7742 9.67275 9.71778 10.525 8.82498C11.3772 7.93217 12.4017 7.2215 13.5364 6.73594C14.6712 6.25038 15.8926 6.00002 17.1269 6Z" fill="#2F88FF" stroke="black" stroke-width="4"/>
<path d="M19.4919 18.7889L36.0109 13.4629M19.4919 13.4629L36.0109 18.7889L19.4919 13.4629Z" stroke="#4CECA9" stroke-width="4" stroke-linecap="round"/>
<path fill-rule="evenodd" clip-rule="evenodd" d="M89.1269 6H90.0129C94.6789 6.69 95.9439 9.338 100.01 9.338C104.076 9.338 105.341 6.69 110.008 6H110.51C111.757 6 112.993 6.24572 114.145 6.72314C115.298 7.20056 116.345 7.90033 117.227 8.78249C118.11 9.66464 118.809 10.7119 119.287 11.8645C119.764 13.0171 120.01 14.2524 120.01 15.5V16.126C120.01 19.029 116.92 22.343 116.01 25.483C115.045 28.817 114.384 31.543 114.19 34.394C113.735 41.075 111.457 44 109.01 44C105.356 44 102.112 29.025 100.073 29.025C98.0329 29.025 93.9879 44 91.0099 44C89.1929 44 86.8399 42.925 85.9559 34.394C85.6039 31 85.0099 28.941 84.0099 25.483C83.1299 22.443 80.1619 18.811 80.0099 15.551C79.9525 14.3181 80.1458 13.0863 80.5781 11.9302C81.0105 10.7742 81.6727 9.71778 82.525 8.82498C83.3772 7.93217 84.4017 7.2215 85.5364 6.73594C86.6712 6.25038 87.8926 6.00002 89.1269 6Z" fill="#2F88FF" stroke="black" stroke-width="4"/>
<path d="M91.4919 18.7889L108.011 13.4629M91.4919 13.4629L108.011 18.7889L91.4919 13.4629Z" stroke="#4CECA9" stroke-width="4" stroke-linecap="round"/>
<path fill-rule="evenodd" clip-rule="evenodd" d="M161.127 6H162.013C166.679 6.69 167.944 9.338 172.01 9.338C176.076 9.338 177.341 6.69 182.008 6H182.51C183.757 6 184.993 6.24572 186.145 6.72314C187.298 7.20056 188.345 7.90033 189.227 8.78249C190.11 9.66464 190.809 10.7119 191.287 11.8645C191.764 13.0171 192.01 14.2524 192.01 15.5V16.126C192.01 19.029 188.92 22.343 188.01 25.483C187.045 28.817 186.384 31.543 186.19 34.394C185.735 41.075 183.457 44 181.01 44C177.356 44 174.112 29.025 172.073 29.025C170.033 29.025 165.988 44 163.01 44C161.193 44 158.84 42.925 157.956 34.394C157.604 31 157.01 28.941 156.01 25.483C155.13 22.443 152.162 18.811 152.01 15.551C151.953 14.3181 152.146 13.0863 152.578 11.9302C153.01 10.7742 153.673 9.71778 154.525 8.82498C155.377 7.93217 156.402 7.2215 157.536 6.73594C158.671 6.25038 159.893 6.00002 161.127 6Z" fill="#2F88FF" stroke="black" stroke-width="4"/>
<path d="M163.492 18.7889L180.011 13.4629M163.492 13.4629L180.011 18.7889L163.492 13.4629Z" stroke="#4CECA9" stroke-width="4" stroke-linecap="round"/>
</svg>
